<?xml version="1.0" encoding="UTF-8"?>
<svg version="1.1" viewBox="0 0 2048 329" width="1280" height="1280" xmlns="http://www.w3.org/2000/svg">
<path transform="translate(181,7)" d="m0 0h130l6 3 5 6 1 3v119l-1 11-3 5-8 4-9 1h-69l-52-1-8-5-3-5-1-4v-126l7-8z" fill="#FBA20C"/>
<path transform="translate(19,168)" d="m0 0h130l5 2 5 5 3 6v122l-2 8-8 7-3 1-30 1h-40l-59-1-7-4-4-5-1-3v-129l7-8z" fill="#12B097"/>
<path transform="translate(19,7)" d="m0 0h130l6 3 6 7 1 3v120l-2 9-6 7-4 2h-130l-6-4-5-6-1-3v-78l1-50 4-6z" fill="#2282E6"/>
<path transform="translate(234,167)" d="m0 0h66l12 1 8 6 2 4v130l-4 6-4 3-3 1h-130l-7-4-4-5-1-6v-122l3-6 7-6 3-1z" fill="#63179A"/>
<path transform="translate(662,70)" d="m0 0h28l3 8 11 40 6 21v2h2l1-9 16-62h28l3 8 15 60 1 2 7-24 13-46h29l-3 11-22 70-10 30h-28l-6-21-11-43-1-6h-2l-1 9-15 58-2 3h-27l-3-7-8-25-22-71z" fill="#000102"/>
<path transform="translate(423,28)" d="m0 0h66l18 2 10 4 10 8 7 11 4 16v13l-3 12-5 10-7 8-10 6-9 3-14 2h-37v57l-1 1h-30v-152zm30 27-1 41 1 1 35-1 9-3 6-5 3-7v-12l-5-8-6-4-8-2z" fill="#000203"/>
<path transform="translate(1068,28)" d="m0 0h67l18 2 9 4 6 4 8 8 5 11 2 7v23l-5 13-8 11-9 6-11 4-14 2-37 1-1 57h-30zm30 27v41h35l11-4 6-6 2-9-1-9-4-6-4-4-11-3z" fill="#000102"/>
<path transform="translate(596,67)" d="m0 0h17l15 4 12 7 8 8 7 11 4 10 2 10v16l-3 14-7 14-9 10-9 6-12 5-11 2h-13l-13-3-14-7-10-9-6-9-4-11-2-11v-17l4-16 7-13 7-8 11-7 10-4zm2 22-9 5-6 7-4 9-2 11v9l3 14 6 10 8 6 6 2h8l8-3 6-4 6-9 2-5 1-6v-19l-2-9-6-10-8-6-5-2z" fill="#000102"/>
<path transform="translate(1317,67)" d="m0 0h16l13 3 13 7 10 9 7 11 4 11 2 11v14l-4 16-5 10-8 10-11 8-12 5-11 2h-13l-16-4-11-6-10-9-6-9-4-11-2-11v-19l3-12 7-14 9-10 10-6 9-4zm2 22-9 5-6 7-4 8-2 13 1 15 4 12 8 9 10 4h8l9-3 6-5 5-8 3-12v-18l-3-11-6-9-9-6-3-1z" fill="#000102"/>
<path transform="translate(867,67)" d="m0 0h15l12 3 10 5 9 8 7 11 4 13 2 13v12l-1 1h-72l4 15 6 8 6 4 11 1 9-3 4-5 2-5 13 1 16 3-2 7-7 10-9 8-8 4-15 3h-14l-14-3-11-6-6-5-7-10-6-16-1-6v-24l4-16 6-11 9-10 12-7zm3 22-7 4-6 7-3 8v7l2 1h40l1-1v-7l-4-10-5-5-8-4z" fill="#000204"/>
<path transform="translate(1869,67)" d="m0 0h16l12 3 10 5 9 8 6 10 4 11 2 11 1 17-3 1h-70l4 15 4 6 6 5 6 2h8l8-4h2l2-4 2-5 13 1 16 3-1 5-7 11-7 7-12 6-7 2-8 1h-12l-12-2-14-7-7-6-7-11-4-10-2-10v-23l3-14 7-14 9-10 10-6zm4 22-6 3-5 5-3 5-2 6v7l1 1h42v-7l-4-11-5-5-8-4z" fill="#010304"/>
<path transform="translate(1540,67)" d="m0 0h15l13 3 10 5 11 11 6 12 3 12 2 22-1 1h-72l3 14 6 9 10 5h9l7-3 4-4 2-6 13 1 17 3-2 6-7 11-8 7-10 5-16 3h-12l-14-3-11-6-8-7-8-14-3-9-2-16 1-16 3-13 6-12 11-12 11-6zm3 22-9 6-5 8-2 7v5l2 1h41l1-1-1-10-4-8-7-6-4-2z" fill="#010204"/>
<path transform="translate(1756,67)" d="m0 0h19l15 3 9 5 8 8 6 12v4l-23 4h-4l-5-9-6-3-4-1h-16l-6 3-2 2v6l6 4 37 10 12 5 6 4 6 7 3 9v14l-4 10-9 10-8 5-14 4-9 1h-12l-13-2-11-4-11-8-6-8-4-8v-4l12-3 16-2 5 9 6 5 7 2h12l9-3 3-3 1-2v-6l-2-3-26-7-21-7-8-5-5-5-4-6-2-8v-9l3-10 4-6 5-5 8-5 10-3z" fill="#010102"/>
<path transform="translate(1646,67)" d="m0 0h19l15 3 8 4 8 7 8 16-3 2-14 3-11 1-4-8-6-4-4-1h-17l-6 3-2 3 1 6 8 4 35 9 16 8 5 5 3 4 2 6 1 9-2 11-4 8-5 6-11 7-9 3-13 2h-13l-13-2-12-5-10-7-7-10-3-7v-3l25-5h4l5 10 8 5 5 1h11l9-3 4-4v-8l-5-3-33-9-15-6-10-9-4-9v-18l5-10 8-8 12-5z" fill="#010102"/>
<path transform="translate(1975,67)" d="m0 0h19l15 3 8 4 9 8 6 12-1 5-21 4h-5l-3-7-5-4-6-2h-17l-6 3-1 2v6l6 4 26 7 16 5 10 5 6 5 5 10 1 5-1 13-4 10-7 8-10 6-9 3-14 2h-12l-13-2-12-5-8-6-7-8-5-10v-3l19-4 10-1 5 10 8 5 5 1h11l10-3 3-4 1-6-1-4-16-4-25-7-12-5-8-7-4-6-2-6v-15l4-10 7-8 8-5 10-3z" fill="#010203"/>
<path transform="translate(1434,67)" d="m0 0h17l14 3 11 6 7 7 5 8 3 7v3l-25 5h-3l-5-10-6-5-3-1h-12l-9 5-5 8-2 7v29l4 12 5 6 5 3 5 1h7l8-3 5-6 3-7 1-5 26 4 3 2-5 14-8 11-8 6-8 4-15 3h-14l-13-3-11-6-9-8-6-10-4-10-2-9v-24l4-16 7-13 8-8 10-6 9-3z" fill="#010203"/>
<path transform="translate(988,67)" d="m0 0h9l10 3 4 2-1 8-7 20-4-1-6-2h-8l-7 4-5 10-2 16-1 54h-29v-111h27l1 12 6-8 7-5z" fill="#000101"/>
<path transform="translate(1247,67)" d="m0 0h9l10 3 4 3-1 7-7 21-11-4h-7l-7 4-5 9-2 15-1 56h-29v-111h27l1 13 6-8 7-6z" fill="#000001"/>
<path transform="translate(1423,240)" d="m0 0h9l4 5 13 22 2 4 1-22 1-9h10v50l-9 1-5-5-12-20-4-7-1 31-8 1-2-6v-44z" fill="#010407"/>
<path transform="translate(918,252)" d="m0 0h8l7 4v-4h9v41l-3 7-5 4-3 1h-14l-6-3-3-5v-4l10 3 3 1h8l3-5v-5l-5 3h-11l-6-5-3-6-1-4v-8l4-10 5-4zm3 7-5 6v13l4 5 5 1 6-4 2-6-1-9-3-5-2-1z" fill="#000203"/>
<path transform="translate(1521,252)" d="m0 0h8l6 4 1-4h8l1 2-1 41-4 7-7 3h-13l-7-3-3-6 1-3 5 1 8 3h7l3-3 1-7-6 3h-10l-5-3-4-6-1-3v-13l4-8 5-4zm3 7-5 5-1 4v7l3 6 5 3 5-2 3-3 1-3v-10l-3-5-2-2z" fill="#010305"/>
<path transform="translate(412,240)" d="m0 0h28l6 3 4 6v12l-3 5-3 3-8 2h-15v19h-9zm10 9-1 1v11l3 1h9l6-3 1-1-1-7-4-2z" fill="#000001"/>
<path transform="translate(1154,252)" d="m0 0h8l3 2 4-2h9l5 3 5 6 1 3v15l-5 8-4 3h-11l-6-4v19h-9zm15 7-5 5-1 3v9l4 6 5 2 5-3 2-3 1-10-3-7-3-2z" fill="#000305"/>
<path transform="translate(1205,252)" d="m0 0h13l6 4 2 4 1 30h-9l-1-3-5 3h-12l-5-5-1-7 3-6 6-3 12-3v-5l-7-1-5 4-7-2 1-5 5-4zm10 19-10 3-1 1v6l1 2h7l4-4v-8z" fill="#010407"/>
<path transform="translate(1360,252)" d="m0 0h9l1 1v23l2 6h7l3-3 1-26 1-1h9v38l-7 1-2-1v-4l-6 4h-12l-5-5-1-3z" fill="#01060B"/>
<path transform="translate(1482,252)" d="m0 0h10l6 3 4 5 2 5 1 8-1 1-24 1 3 7 6 1 7-2 7 2-2 4-5 3-11 1-7-2-6-7-2-6v-9l3-8 5-5zm1 7-3 4v3l8 1 7-1-3-6-2-1z" fill="#02060A"/>
<path transform="translate(1271,252)" d="m0 0h13l6 4 2 3 1 27 1 4-5 1-5-2-1-2-5 3h-12l-5-5-1-7 3-6 7-3 12-2-2-7h-6l-5 4-6-2 1-6 4-3zm9 19-10 4v6l1 2h7l4-4v-8z" fill="#010407"/>
<path transform="translate(497,252)" d="m0 0h10l7 3 5 6 2 5v10l-4 8-6 5-2 1h-14l-6-4-4-5-2-5v-9l4-9 6-5zm2 7-5 4-2 8 2 8 4 4h8l4-4 1-2v-12l-4-5-2-1z" fill="#020609"/>
<path transform="translate(765,252)" d="m0 0h9l1 3 7-3h8l5 3 3 5v30l-6 1-3-1-1-25-3-5-7 1-2 3-1 26h-10z" fill="#000204"/>
<path transform="translate(962,252)" d="m0 0h9l6 3 4 5 3 10-1 4h-24l3 8 6 1 7-2 7 2-2 4-5 3h-15l-5-3-4-5-2-8 1-10 3-6 6-5zm1 7-4 5v2l7 1 8-1-1-4-3-3z" fill="#02060B"/>
<path transform="translate(991,252)" d="m0 0h8v3l8-3h8l7 4 1 1 1 7v26h-10l-1-27-2-3h-6l-3 1-1 4-1 25h-9l-1-5z" fill="#010509"/>
<path transform="translate(576,252)" d="m0 0h10l6 3 5 6 2 12-9 1h-16l3 7 5 2 9-2 6 2-2 4-6 3h-15l-7-6-3-9 1-11 3-6 6-5zm2 7-4 4v3l9 1 6-1-2-5-3-2z" fill="#02060B"/>
<path transform="translate(1565,252)" d="m0 0h11l6 3 6 7 2 10-2 8-7 8-4 2h-13l-7-4-4-5-2-7 1-10 5-8zm2 7-5 5-1 3v10l4 5 6 2 6-3 3-6v-9l-4-6-2-1z" fill="#020406"/>
<path transform="translate(656,252)" d="m0 0h11l6 3 5 5 3 9-1 9-6 9-6 3h-14l-8-6-4-10 1-9 5-8 5-4zm2 7-5 5-1 3v9l3 5 2 2 5 1 5-2 3-3 1-4v-9l-4-6-2-1z" fill="#020508"/>
<path transform="translate(1066,252)" d="m0 0h10l7 4 4 6 1 3v8l-6 1-18 1 2 7h18l4 2-5 4-4 2h-15l-7-6-3-7v-10l4-9 6-5zm2 7-4 4v3l2 1 13-1-2-5-3-2z" fill="#01050A"/>
<path transform="translate(1328,252)" d="m0 0h13l7 4 2 3v3l-9 2-3-4h-9l1 4 15 4 5 4 2 4-1 7-4 5-4 2-8 1-11-2-5-5 1-4 7-2 2 4h11l1-4-17-5-4-4-1-7 2-5 5-4z" fill="#030609"/>
<path transform="translate(1103,252)" d="m0 0h13l5 3 4 5-3 3-6 1-3-4h-9l1 4 16 5 5 5v7l-4 6-5 3-9 1-9-2-6-5 1-4 9-1 2 3h9l3-4-11-3-9-3-3-4v-9l4-5z" fill="#010407"/>
<path transform="translate(614,252)" d="m0 0h12l6 3 3 4v3l-8 2-4-4h-10l1 3 18 6 5 6v6l-4 6-5 3-9 1-10-2-6-6v-2l6-2 5 1 2 2h9l2-4-17-5-5-5v-9l4-5z" fill="#020508"/>
<path transform="translate(695,252)" d="m0 0h13l6 4 3 5-9 3-2-4h-10l1 4 16 5 4 4 1 2v6l-4 6-5 3h-16l-6-4-2-4 5-3 5 1v2h13l-1-4-18-6-3-4v-9l4-5z" fill="#020406"/>
<path transform="translate(1666,252)" d="m0 0h11l8 4 5 8 1 8-2 8-5 7-6 3h-13l-7-4-4-6-1-3v-12l4-7 6-5zm2 7-5 5-1 4v8l4 6 7 2 5-3 3-4v-11l-3-5-2-2z" fill="#030508"/>
<path transform="translate(841,252)" d="m0 0h9l6 3 5 6 2 6v6l-10 1h-14l2 7 1 1h17l2 1-2 4-5 3h-15l-6-4-4-7v-14l4-8 5-4zm1 7-4 5v2l2 1h8l5-1-1-4-3-3z" fill="#010408"/>
<path transform="translate(538,252)" d="m0 0h12l5 3 5 6-5 2h-5l-4-3h-6l-3 3-1 3v10l2 6 7 1 4-2 1-2 9 1v4l-5 5-3 1h-14l-5-3-5-6-1-2v-15l5-8 4-3z" fill="#020407"/>
<path transform="translate(1607,252)" d="m0 0h12l6 4 3 3v2l-5 2h-5l-3-3h-6l-3 3-1 3v11l3 5 5 1 6-3 5-1 5 2-2 4-4 4-3 1h-14l-5-3-5-6-1-2v-15l3-6 6-5z" fill="#020406"/>
<path transform="translate(1042,240)" d="m0 0h2v12h7v7h-7v24h7l1 4-2 3h-12l-3-3-1-4v-24h-4l-1-6 5-1v-7z" fill="#010408"/>
<path transform="translate(817,240)" d="m0 0h2v12h7v7h-7v24h7v6l-1 1h-12l-3-4-1-3v-24h-4v-7h4v-6l3-3z" fill="#000101"/>
<path transform="translate(870,240)" d="m0 0h10v50h-10z"/>
<path transform="translate(458,252)" d="m0 0h10v3h2v-3h10l1 4-2 3-8 2-2 4-1 25h-10z" fill="#000306"/>
<path transform="translate(746,240)" d="m0 0h9v50l-5 1-4-1z" fill="#000102"/>
<path transform="translate(1236,252)" d="m0 0h8 4 9l1 1v5l-10 3-1 2-2 27h-9l-1-7z" fill="#010306"/>
<path transform="translate(889,252)" d="m0 0h10v38l-2 1h-6l-2-1z" fill="#000204"/>
<path transform="translate(1636,252)" d="m0 0h10v37l-1 1h-9z" fill="#151516"/>
<path transform="translate(889,240)" d="m0 0h10v7h-9l-1-1z" fill="#000103"/>
<path transform="translate(1636,240)" d="m0 0h9l1 3-1 4h-9z" fill="#040507"/>
</svg>
